PathFileType	4	(X/Y/Z)	output.trc
DataRate	CameraRate	NumFrames	NumMarkers	Units	OrigDataRate	OrigDataStartFrame	OrigNumFrames
100	100	13	23	m	100	3866	6185
Frame#	Time	C7			T8			EL			EM			US			RS			AA			Fore_Clus_1			Fore_Clus_2			Fore_Clus_3			Fore_Clus_4			Hum_Clus_1			Hum_Clus_2			Hum_Clus_3			Hum_Clus_4			Thor_Clus_1			Thor_Clus_2			Thor_Clus_3			Thor_Clus_4			IJ			PX			GH			Thor_Clus_5		
		X1	Y1	Z1	X2	Y2	Z2	X3	Y3	Z3	X4	Y4	Z4	X5	Y5	Z5	X6	Y6	Z6	X7	Y7	Z7	X8	Y8	Z8	X9	Y9	Z9	X10	Y10	Z10	X11	Y11	Z11	X12	Y12	Z12	X13	Y13	Z13	X14	Y14	Z14	X15	Y15	Z15	X16	Y16	Z16	X17	Y17	Z17	X18	Y18	Z18	X19	Y19	Z19	X20	Y20	Z20	X21	Y21	Z21	X22	Y22	Z22	X23	Y23	Z23
3865	38.650000	-0.054157	1.475705	-0.113615	-0.076856	1.241672	-0.148953	-0.190591	1.075672	0.112383	-0.152915	1.061175	0.060991	-0.048955	1.057597	0.314172	-0.037832	1.110523	0.312328	-0.185208	1.381841	0.040716	-0.114251	1.055618	0.272979	-0.085074	1.060902	0.318890	-0.086700	1.088787	0.316558	-0.117170	1.100283	0.268908	-0.192074	1.181119	0.123278	-0.227609	1.176695	0.074636	-0.238751	1.238362	0.063729	-0.198943	1.252835	0.104699	0.079970	1.377089	0.003926	0.047127	1.328192	0.064373	0.043107	1.374046	0.029511	0.099546	1.332680	0.026876	0.015917	1.386196	-0.028243	0.052326	1.174522	0.021787	-0.156292	1.360853	0.000298	0.038158	1.347818	0.053924
3866	38.660000	-0.054009	1.475778	-0.113455	-0.076912	1.241779	-0.148883	-0.190584	1.075692	0.112235	-0.152865	1.061256	0.060857	-0.049307	1.057297	0.314211	-0.038228	1.110237	0.312493	-0.185076	1.381955	0.040887	-0.114468	1.055379	0.272887	-0.085400	1.060590	0.318849	-0.087010	1.088468	0.316591	-0.117401	1.100035	0.268883	-0.192110	1.181126	0.123246	-0.227589	1.176769	0.074556	-0.238724	1.238435	0.063738	-0.198940	1.252853	0.104747	0.080051	1.377006	0.003989	0.047209	1.328099	0.064405	0.043224	1.373983	0.029626	0.099629	1.332559	0.026937	0.016025	1.386176	-0.028148	0.052283	1.174451	0.021777	-0.156199	1.361005	0.000512	0.038276	1.347725	0.053993
3867	38.670000	-0.053852	1.475853	-0.113309	-0.076952	1.241888	-0.148826	-0.190589	1.075718	0.112073	-0.152827	1.061339	0.060711	-0.049722	1.057046	0.314265	-0.038677	1.109996	0.312654	-0.184962	1.382076	0.041024	-0.114786	1.055147	0.272824	-0.085806	1.060335	0.318836	-0.087851	1.088402	0.316698	-0.117701	1.099813	0.268845	-0.192171	1.181117	0.123201	-0.227577	1.176822	0.074451	-0.238704	1.238511	0.063691	-0.198973	1.252869	0.104791	0.080133	1.376943	0.004064	0.047290	1.328018	0.064476	0.043313	1.373894	0.029748	0.099713	1.332461	0.027027	0.016128	1.386161	-0.028054	0.052225	1.174387	0.021780	-0.156122	1.361154	0.000692	0.038377	1.347667	0.054088
3868	38.680000	-0.053682	1.475932	-0.113179	-0.076973	1.241999	-0.148784	-0.190603	1.075744	0.111897	-0.152797	1.061421	0.060551	-0.050186	1.056845	0.314339	-0.039170	1.109805	0.312825	-0.184863	1.382202	0.041123	-0.115161	1.054945	0.272746	-0.086283	1.060103	0.318801	-0.088268	1.088156	0.316682	-0.118044	1.099639	0.268786	-0.192242	1.181118	0.123150	-0.227587	1.176874	0.074307	-0.238693	1.238585	0.063625	-0.199028	1.252899	0.104791	0.080208	1.376851	0.004149	0.047403	1.327963	0.064479	0.043404	1.373832	0.029832	0.099768	1.332365	0.027096	0.016228	1.386150	-0.027960	0.052155	1.174328	0.021792	-0.156054	1.361299	0.000844	0.038461	1.347612	0.054168
3869	38.690000	-0.053512	1.476009	-0.113060	-0.076980	1.242105	-0.148749	-0.190618	1.075769	0.111706	-0.152768	1.061500	0.060378	-0.050686	1.056682	0.314423	-0.039688	1.109647	0.312992	-0.184779	1.382325	0.041196	-0.115566	1.054768	0.272644	-0.086803	1.059908	0.318794	-0.088790	1.087958	0.316669	-0.118440	1.099476	0.268717	-0.192342	1.181168	0.122916	-0.227590	1.176940	0.074179	-0.238687	1.238651	0.063536	-0.199083	1.252931	0.104760	0.080276	1.376783	0.004233	0.047429	1.327920	0.064605	0.043478	1.373758	0.029925	0.099817	1.332279	0.027185	0.016321	1.386143	-0.027866	0.052080	1.174276	0.021815	-0.155995	1.361437	0.000969	0.038529	1.347556	0.054259
3870	38.700000	-0.053347	1.476079	-0.112951	-0.076974	1.242204	-0.148719	-0.190631	1.075788	0.111504	-0.152736	1.061572	0.060194	-0.051208	1.056550	0.314513	-0.040217	1.109518	0.313152	-0.184710	1.382440	0.041251	-0.115992	1.054643	0.272535	-0.087289	1.059736	0.318770	-0.089308	1.087789	0.316664	-0.118837	1.099360	0.268663	-0.192434	1.181217	0.122696	-0.227578	1.176992	0.074043	-0.238666	1.238720	0.063428	-0.199134	1.252958	0.104722	0.080342	1.376714	0.004337	0.047527	1.327871	0.064595	0.043532	1.373732	0.030017	0.099860	1.332197	0.027264	0.016406	1.386137	-0.027772	0.052005	1.174229	0.021848	-0.155944	1.361566	0.001070	0.038594	1.347511	0.054347
3871	38.710000	-0.053189	1.476143	-0.112851	-0.076955	1.242293	-0.148693	-0.190641	1.075801	0.111293	-0.152700	1.061637	0.060004	-0.051743	1.056445	0.314612	-0.040749	1.109415	0.313314	-0.184654	1.382542	0.041287	-0.116394	1.054534	0.272428	-0.087844	1.059578	0.318784	-0.089837	1.087645	0.316660	-0.119277	1.099224	0.268617	-0.192490	1.181226	0.122594	-0.227569	1.177025	0.073896	-0.238662	1.238774	0.063324	-0.199193	1.252989	0.104676	0.080364	1.376645	0.004429	0.047534	1.327801	0.064874	0.043609	1.373587	0.030068	0.099880	1.332131	0.027351	0.016484	1.386132	-0.027679	0.051934	1.174187	0.021889	-0.155895	1.361684	0.001152	0.038620	1.347478	0.054431
3872	38.720000	-0.053052	1.476193	-0.112756	-0.076930	1.242365	-0.148663	-0.190646	1.075806	0.111078	-0.152655	1.061692	0.059810	-0.052279	1.056354	0.314707	-0.041271	1.109322	0.313459	-0.184610	1.382623	0.041321	-0.116792	1.054476	0.272314	-0.088435	1.059485	0.318782	-0.090432	1.087550	0.316687	-0.119711	1.099136	0.268564	-0.192552	1.181236	0.122475	-0.227550	1.177060	0.073733	-0.238650	1.238821	0.063197	-0.199244	1.253012	0.104610	0.080458	1.376590	0.004559	0.047561	1.327757	0.064956	0.043642	1.373556	0.030160	0.099917	1.332078	0.027442	0.016549	1.386124	-0.027587	0.051875	1.174148	0.021939	-0.155850	1.361790	0.001214	0.038629	1.347433	0.054523
3873	38.730000	-0.052932	1.476230	-0.112667	-0.076896	1.242420	-0.148633	-0.190648	1.075802	0.110862	-0.152605	1.061738	0.059620	-0.052810	1.056279	0.314809	-0.041780	1.109244	0.313604	-0.184577	1.382681	0.041349	-0.117200	1.054431	0.272235	-0.089001	1.059424	0.318776	-0.090945	1.087509	0.316684	-0.120150	1.099085	0.268489	-0.192601	1.181234	0.122359	-0.227526	1.177089	0.073571	-0.238639	1.238853	0.063070	-0.199283	1.253016	0.104546	0.080494	1.376564	0.004671	0.047549	1.327688	0.065052	0.043711	1.373544	0.030290	0.099931	1.332026	0.027541	0.016605	1.386114	-0.027496	0.051827	1.174113	0.021994	-0.155804	1.361881	0.001262	0.038640	1.347400	0.054602
3874	38.740000	-0.052839	1.476250	-0.112582	-0.076860	1.242453	-0.148597	-0.190646	1.075791	0.110651	-0.152548	1.061773	0.059437	-0.053329	1.056211	0.314906	-0.042267	1.109170	0.313736	-0.184554	1.382711	0.041381	-0.117594	1.054435	0.272170	-0.089501	1.059414	0.318781	-0.091463	1.087497	0.316680	-0.120522	1.099075	0.268450	-0.192618	1.181220	0.122230	-0.227495	1.177092	0.073416	-0.238619	1.238865	0.062931	-0.199271	1.253032	0.104419	0.080558	1.376519	0.004786	0.047554	1.327666	0.065130	0.043778	1.373623	0.030335	0.099967	1.331964	0.027632	0.016649	1.386099	-0.027407	0.051797	1.174078	0.022055	-0.155759	1.361958	0.001294	0.038640	1.347376	0.054681
3875	38.750000	-0.052773	1.476252	-0.112499	-0.076821	1.242464	-0.148553	-0.190643	1.075773	0.110448	-0.152485	1.061798	0.059267	-0.053831	1.056147	0.314998	-0.042730	1.109098	0.313857	-0.184539	1.382710	0.041419	-0.117985	1.054420	0.272105	-0.090012	1.059379	0.318781	-0.091685	1.087304	0.316707	-0.120870	1.099084	0.268419	-0.192647	1.181200	0.122098	-0.227466	1.177092	0.073258	-0.238606	1.238861	0.062795	-0.199279	1.253023	0.104277	0.080615	1.376503	0.004900	0.047543	1.327622	0.065221	0.043864	1.373683	0.030363	0.099973	1.331919	0.027727	0.016680	1.386077	-0.027321	0.051784	1.174045	0.022119	-0.155712	1.362019	0.001312	0.038649	1.347341	0.054740
3876	38.760000	-0.052731	1.476237	-0.112419	-0.076780	1.242453	-0.148506	-0.190640	1.075750	0.110258	-0.152421	1.061813	0.059112	-0.054312	1.056090	0.315091	-0.043169	1.109032	0.313973	-0.184530	1.382682	0.041461	-0.118346	1.054410	0.272032	-0.090526	1.059350	0.318808	-0.092127	1.087217	0.316646	-0.121211	1.099094	0.268360	-0.192672	1.181172	0.121980	-0.227442	1.177073	0.073097	-0.238586	1.238857	0.062637	-0.199293	1.253001	0.104190	0.080636	1.376467	0.005004	0.047535	1.327581	0.065282	0.043775	1.373483	0.030503	0.099978	1.331880	0.027810	0.016703	1.386050	-0.027238	0.051789	1.174010	0.022184	-0.155663	1.362065	0.001318	0.038639	1.347313	0.054821
3877	38.770000	-0.052719	1.476202	-0.112340	-0.076742	1.242419	-0.148449	-0.190637	1.075724	0.110083	-0.152355	1.061820	0.058976	-0.054768	1.056029	0.315170	-0.043578	1.108962	0.314069	-0.184527	1.382622	0.041517	-0.118727	1.054391	0.271961	-0.091019	1.059347	0.318808	-0.092601	1.087213	0.316628	-0.121550	1.099087	0.268288	-0.192658	1.181147	0.121820	-0.227412	1.177051	0.072960	-0.238563	1.238832	0.062483	-0.199318	1.252974	0.104088	0.080684	1.376430	0.005109	0.047541	1.327554	0.065340	0.043780	1.373459	0.030584	0.099991	1.331839	0.027897	0.016713	1.386014	-0.027159	0.051814	1.173974	0.022250	-0.155613	1.362097	0.001309	0.038691	1.347286	0.054945
